<?xml version="1.0" standalone="no"?>
<!DOCTYPE svg PUBLIC "-//W3C//DTD SVG 20010904//EN"
 "http://www.w3.org/TR/2001/REC-SVG-20010904/DTD/svg10.dtd">
<svg version="1.0" xmlns="http://www.w3.org/2000/svg"
 width="440.000000pt" height="104.000000pt" viewBox="0 0 440.000000 104.000000"
 preserveAspectRatio="xMidYMid meet">
<metadata>
Created by potrace 1.15, written by Peter Selinger 2001-2017
</metadata>
<g transform="translate(0.000000,104.000000) scale(0.100000,-0.100000)"
fill="#000000" stroke="none">
<path d="M403 1026 c-147 -36 -283 -146 -348 -280 -98 -204 -59 -431 101 -591
206 -206 523 -206 729 0 162 162 200 398 95 604 -38 76 -139 177 -218 219
-106 57 -246 75 -359 48z"/>
<path d="M2330 535 c0 -308 0 -315 20 -315 20 0 20 7 20 315 0 308 0 315 -20
315 -20 0 -20 -7 -20 -315z"/>
<path d="M2680 810 l0 -40 -80 0 c-73 0 -80 -2 -80 -20 0 -19 7 -20 185 -20
178 0 185 1 185 20 0 18 -7 20 -80 20 l-80 0 0 40 c0 36 -2 40 -25 40 -22 0
-25 -4 -25 -40z"/>
<path d="M2960 620 l0 -230 25 0 c25 0 25 1 25 90 l0 90 45 0 c38 0 45 3 45
20 0 17 -7 20 -45 20 l-45 0 0 120 0 120 -25 0 -25 0 0 -230z"/>
<path d="M3670 535 c0 -308 0 -315 20 -315 20 0 20 7 20 315 0 308 0 315 -20
315 -20 0 -20 -7 -20 -315z"/>
<path d="M4330 655 l0 -195 -65 0 c-58 0 -65 -2 -65 -20 0 -18 7 -20 65 -20
l65 0 0 -35 c0 -31 3 -35 25 -35 l25 0 0 250 0 250 -25 0 -25 0 0 -195z"/>
<path d="M2220 740 l0 -100 -55 0 c-48 0 -55 -2 -55 -20 0 -18 7 -20 55 -20
l55 0 0 -180 c0 -173 1 -180 20 -180 20 0 20 7 20 300 0 293 0 300 -20 300
-19 0 -20 -7 -20 -100z"/>
<path d="M4015 826 c-120 -45 -109 -183 16 -216 103 -28 209 28 209 110 0 34
-28 79 -61 95 -44 23 -117 28 -164 11z m135 -41 c32 -17 46 -51 36 -90 -18
-72 -184 -72 -202 0 -15 61 25 104 99 105 21 0 51 -7 67 -15z"/>
<path d="M1440 793 c0 -30 -8 -44 -44 -79 -43 -41 -134 -84 -178 -84 -20 0
-20 -1 -4 -19 15 -16 23 -18 54 -9 53 15 126 53 165 88 31 27 36 28 48 14 26
-32 104 -78 162 -96 57 -17 60 -17 72 -1 12 16 9 19 -33 29 -107 24 -192 95
-192 159 0 31 -3 35 -25 35 -22 0 -25 -4 -25 -37z"/>
<path d="M1870 780 c0 -18 7 -20 60 -20 l60 0 0 -48 c0 -99 -43 -212 -107
-283 -30 -33 -34 -42 -22 -50 8 -5 17 -9 21 -9 14 0 63 69 94 133 l32 68 26
-56 c14 -30 40 -76 57 -100 31 -43 33 -44 51 -28 18 16 18 18 -11 47 -52 53
-92 155 -98 246 l-6 80 62 0 c54 0 61 2 61 20 0 19 -7 20 -140 20 -133 0 -140
-1 -140 -20z"/>
<path d="M3336 790 c-65 -21 -114 -99 -101 -161 23 -103 161 -150 262 -88 84
52 83 177 -2 229 -39 24 -117 34 -159 20z m130 -49 c95 -58 44 -191 -73 -191
-66 0 -112 43 -112 105 0 22 5 47 12 55 40 52 117 65 173 31z"/>
<path d="M2620 678 c-36 -18 -48 -32 -59 -63 -12 -35 -11 -45 2 -78 43 -100
235 -101 282 0 16 33 16 41 4 78 -11 31 -23 45 -59 63 -24 12 -63 22 -85 22
-22 0 -61 -10 -85 -22z m170 -43 c28 -25 27 -85 -1 -111 -16 -14 -36 -19 -84
-19 -78 0 -105 19 -105 75 0 36 16 60 50 73 30 12 119 1 140 -18z"/>
<path d="M4048 553 c-173 -3 -176 -4 -171 -24 6 -20 12 -21 97 -18 l91 4 3
-67 c3 -60 5 -68 22 -68 18 0 20 7 20 70 l0 70 85 0 c78 0 85 2 85 20 0 16 -6
20 -27 18 -16 -1 -107 -4 -205 -5z"/>
<path d="M1170 490 c0 -19 7 -20 135 -20 l135 0 0 -125 0 -125 25 0 25 0 0
125 0 125 135 0 c128 0 135 1 135 20 0 20 -7 20 -295 20 -288 0 -295 0 -295
-20z"/>
<path d="M3970 335 l0 -95 210 0 c203 0 210 1 210 20 0 19 -7 20 -185 20
l-185 0 0 75 c0 73 -1 75 -25 75 -25 0 -25 0 -25 -95z"/>
<path d="M2630 325 l0 -85 195 0 c188 0 195 1 195 20 0 19 -7 20 -175 20
l-175 0 0 65 c0 58 -2 65 -20 65 -18 0 -20 -7 -20 -85z"/>
<path d="M3383 383 c-185 -3 -193 -4 -193 -23 0 -23 24 -24 278 -13 139 6 152
8 152 25 0 13 -6 17 -22 16 -13 -2 -110 -4 -215 -5z"/>
</g>
</svg>
